<svg width="32" height="32" viewBox="0 0 32 32" fill="none" xmlns="http://www.w3.org/2000/svg">
<path d="M28.875 2.75H25.8958V1.875C25.8958 0.841125 25.0547 0 24.0208 0C22.9869 0 22.1458 0.841125 22.1458 1.875V2.75H11.6458V1.875C11.6458 0.841125 10.8047 0 9.77081 0C8.73694 0 7.89581 0.841125 7.89581 1.875V2.77312C7.84269 2.75844 7.787 2.75 7.72919 2.75H5.23894C3.51581 2.75 2.11394 4.15188 2.11394 5.875V16.5208C2.11394 16.866 2.39381 17.1458 2.73894 17.1458C3.08406 17.1458 3.36394 16.866 3.36394 16.5208V9.1875H25.8958C26.2409 9.1875 26.5208 8.90769 26.5208 8.5625C26.5208 8.21731 26.2409 7.9375 25.8958 7.9375H3.36394V5.875C3.36394 4.84113 4.20506 4 5.23894 4H7.72919C7.787 4 7.84269 3.9915 7.89581 3.97688V4.78125C7.89581 5.81512 8.73694 6.65625 9.77081 6.65625C10.8047 6.65625 11.6458 5.81512 11.6458 4.78125V4H22.1458V4.78125C22.1458 5.81512 22.9869 6.65625 24.0208 6.65625C25.0547 6.65625 25.8958 5.81512 25.8958 4.78125V4H28.875C29.9089 4 30.75 4.84113 30.75 5.875V29.6246C30.75 30.2451 30.2452 30.75 29.6246 30.75C29.0041 30.75 28.4993 30.2451 28.4993 29.6246V28.0078C28.4993 27.6626 28.2194 27.3828 27.8743 27.3828H20.6042C20.2591 27.3828 19.9792 27.6626 19.9792 28.0078C19.9792 28.353 20.2591 28.6328 20.6042 28.6328H27.2493V29.6246C27.2493 30.0316 27.3522 30.4148 27.5333 30.75H2.375C1.75469 30.75 1.25 30.2453 1.25 29.625V28.6328H15.2391C15.5842 28.6328 15.8641 28.353 15.8641 28.0078C15.8641 27.6626 15.5842 27.3828 15.2391 27.3828H8.99431C10.0864 26.4422 10.7799 25.051 10.7799 23.5C10.7799 20.6741 8.48088 18.375 5.65494 18.375C2.829 18.375 0.529938 20.6741 0.529938 23.5C0.529938 25.051 1.22344 26.4422 2.31556 27.3828H0.625C0.279875 27.3828 0 27.6626 0 28.0078V29.625C0 30.9346 1.06544 32 2.375 32H29.6246C30.9344 32 32 30.9344 32 29.6246V5.875C32 4.15188 30.5981 2.75 28.875 2.75ZM10.3958 4.78125C10.3958 5.12587 10.1154 5.40625 9.77081 5.40625C9.42619 5.40625 9.14581 5.12587 9.14581 4.78125V1.875C9.14581 1.53038 9.42619 1.25 9.77081 1.25C10.1154 1.25 10.3958 1.53038 10.3958 1.875V4.78125ZM24.6458 4.78125C24.6458 5.12587 24.3654 5.40625 24.0208 5.40625C23.6762 5.40625 23.3958 5.12587 23.3958 4.78125V1.875C23.3958 1.53038 23.6762 1.25 24.0208 1.25C24.3654 1.25 24.6458 1.53038 24.6458 1.875V4.78125ZM1.77994 23.5C1.77994 21.3633 3.51825 19.625 5.65494 19.625C7.79163 19.625 9.52994 21.3633 9.52994 23.5C9.52994 25.6367 7.79163 27.375 5.65494 27.375C3.51825 27.375 1.77994 25.6367 1.77994 23.5Z" fill="#00A0E3"/>
<path d="M29.2693 8.12062C29.1531 8.00437 28.9919 7.9375 28.8275 7.9375C28.6631 7.9375 28.5019 8.00437 28.3856 8.12062C28.2694 8.23687 28.2025 8.39812 28.2025 8.5625C28.2025 8.72688 28.2693 8.88813 28.3856 9.00438C28.502 9.12063 28.6631 9.1875 28.8275 9.1875C28.9919 9.1875 29.1531 9.12063 29.2693 9.00438C29.3856 8.88813 29.4525 8.72688 29.4525 8.5625C29.4525 8.39812 29.3856 8.23687 29.2693 8.12062Z" fill="#00A0E3"/>
<path d="M18.6656 27.5657C18.5494 27.4494 18.3881 27.3832 18.2238 27.3832C18.0594 27.3832 17.8981 27.4494 17.7819 27.5657C17.6656 27.6826 17.5988 27.8432 17.5988 28.0076C17.5988 28.1726 17.6656 28.3332 17.7819 28.4501C17.8981 28.5663 18.0594 28.6326 18.2238 28.6326C18.3881 28.6326 18.5494 28.5663 18.6656 28.4501C18.7818 28.3332 18.8488 28.1719 18.8488 28.0076C18.8488 27.8432 18.7819 27.6826 18.6656 27.5657Z" fill="#00A0E3"/>
<path d="M14.1403 19C12.8308 19 11.7653 20.0654 11.7653 21.375C11.7653 22.6846 12.8308 23.75 14.1403 23.75C15.4499 23.75 16.5153 22.6846 16.5153 21.375C16.5153 20.0654 15.4499 19 14.1403 19ZM14.1403 22.5C13.52 22.5 13.0153 21.9953 13.0153 21.375C13.0153 20.7547 13.52 20.25 14.1403 20.25C14.7606 20.25 15.2653 20.7547 15.2653 21.375C15.2653 21.9953 14.7606 22.5 14.1403 22.5Z" fill="#00A0E3"/>
<path d="M19.9736 19C18.6641 19 17.5986 20.0654 17.5986 21.375C17.5986 22.6846 18.6641 23.75 19.9736 23.75C21.2832 23.75 22.3486 22.6846 22.3486 21.375C22.3486 20.0654 21.2832 19 19.9736 19ZM19.9736 22.5C19.3533 22.5 18.8486 21.9953 18.8486 21.375C18.8486 20.7547 19.3533 20.25 19.9736 20.25C20.5939 20.25 21.0986 20.7547 21.0986 21.375C21.0986 21.9953 20.5939 22.5 19.9736 22.5Z" fill="#00A0E3"/>
<path d="M25.807 19C24.4974 19 23.432 20.0654 23.432 21.375C23.432 22.6846 24.4974 23.75 25.807 23.75C27.1166 23.75 28.182 22.6846 28.182 21.375C28.182 20.0654 27.1166 19 25.807 19ZM25.807 22.5C25.1867 22.5 24.682 21.9953 24.682 21.375C24.682 20.7547 25.1867 20.25 25.807 20.25C26.4273 20.25 26.932 20.7547 26.932 21.375C26.932 21.9953 26.4273 22.5 25.807 22.5Z" fill="#00A0E3"/>
<path d="M8.30701 12.5C6.99744 12.5 5.93201 13.5654 5.93201 14.875C5.93201 16.1846 6.99744 17.25 8.30701 17.25C9.61657 17.25 10.682 16.1846 10.682 14.875C10.682 13.5654 9.61657 12.5 8.30701 12.5ZM8.30701 16C7.68669 16 7.18201 15.4953 7.18201 14.875C7.18201 14.2547 7.68669 13.75 8.30701 13.75C8.92732 13.75 9.43201 14.2547 9.43201 14.875C9.43201 15.4953 8.92732 16 8.30701 16Z" fill="#00A0E3"/>
<path d="M19.9736 12.5C18.6641 12.5 17.5986 13.5654 17.5986 14.875C17.5986 16.1846 18.6641 17.25 19.9736 17.25C21.2832 17.25 22.3486 16.1846 22.3486 14.875C22.3486 13.5654 21.2832 12.5 19.9736 12.5ZM19.9736 16C19.3533 16 18.8486 15.4953 18.8486 14.875C18.8486 14.2547 19.3533 13.75 19.9736 13.75C20.5939 13.75 21.0986 14.2547 21.0986 14.875C21.0986 15.4953 20.5939 16 19.9736 16Z" fill="#00A0E3"/>
<path d="M25.807 12.5C24.4974 12.5 23.432 13.5654 23.432 14.875C23.432 16.1846 24.4974 17.25 25.807 17.25C27.1166 17.25 28.182 16.1846 28.182 14.875C28.182 13.5654 27.1166 12.5 25.807 12.5ZM25.807 16C25.1867 16 24.682 15.4953 24.682 14.875C24.682 14.2547 25.1867 13.75 25.807 13.75C26.4273 13.75 26.932 14.2547 26.932 14.875C26.932 15.4953 26.4273 16 25.807 16Z" fill="#00A0E3"/>
<path d="M14.1403 12.5C12.8308 12.5 11.7653 13.5654 11.7653 14.875C11.7653 16.1846 12.8308 17.25 14.1403 17.25C15.4499 17.25 16.5153 16.1846 16.5153 14.875C16.5153 13.5654 15.4499 12.5 14.1403 12.5ZM14.1403 16C13.52 16 13.0153 15.4953 13.0153 14.875C13.0153 14.2547 13.52 13.75 14.1403 13.75C14.7606 13.75 15.2653 14.2547 15.2653 14.875C15.2653 15.4953 14.7606 16 14.1403 16Z" fill="#00A0E3"/>
<path d="M7.8815 21.9769C7.63737 21.7328 7.24175 21.7328 6.99756 21.9769L4.96219 24.0123L4.26663 23.3167C4.0225 23.0727 3.62688 23.0727 3.38269 23.3167C3.13863 23.5608 3.13863 23.9566 3.38269 24.2007L4.52025 25.3381C4.6375 25.4553 4.79644 25.5212 4.96219 25.5212C5.12794 25.5212 5.28688 25.4553 5.40413 25.3381L7.8815 22.8607C8.12556 22.6167 8.12556 22.2209 7.8815 21.9769Z" fill="#00A0E3"/>
</svg>
