<svg width="32" height="32" viewBox="0 0 32 32" fill="none" xmlns="http://www.w3.org/2000/svg">
<path d="M31.4838 0H2.58064C2.29586 0 2.06451 0.23135 2.06451 0.516127V2.06451H0.516127C0.23135 2.06451 0 2.29586 0 2.58064V23.2257C0 23.5112 0.23135 23.7418 0.516127 23.7418H10.5914C11.0829 24.3358 11.695 24.8248 12.3871 25.1798V31.4837C12.3871 31.6922 12.5131 31.8812 12.7056 31.9606C12.8981 32.0407 13.1199 31.9963 13.2681 31.8487L14.9677 30.1491L16.6673 31.8487C16.7658 31.9472 16.8981 31.9999 17.0322 31.9999C17.0987 31.9999 17.166 31.9875 17.23 31.9606C17.4223 31.8812 17.5483 31.6922 17.5483 31.4837V25.1798C18.2401 24.8248 18.852 24.3363 19.3439 23.7418H29.4193C29.7043 23.7418 29.9354 23.5112 29.9354 23.2257V21.6773H31.4838C31.7688 21.6773 31.9999 21.4467 31.9999 21.1612V0.516127C31.9999 0.23135 31.7688 0 31.4838 0ZM16.5161 30.2378L15.3326 29.0543C15.1308 28.8525 14.8046 28.8525 14.6028 29.0543L13.4193 30.2378V25.5866C13.9123 25.7265 14.4304 25.8063 14.9677 25.8063C15.505 25.8063 16.0231 25.7265 16.5161 25.5866V30.2378ZM14.9677 24.7741C12.4067 24.7741 10.3225 22.6904 10.3225 20.129C10.3225 17.5675 12.4067 15.4838 14.9677 15.4838C17.5287 15.4838 19.6128 17.5675 19.6128 20.129C19.6128 22.6904 17.5287 24.7741 14.9677 24.7741ZM9.31676 20.6451H6.15699C5.92992 19.0647 4.67665 17.8122 3.09676 17.5849V8.22149C4.67665 7.99417 5.92992 6.74115 6.15699 5.16127H23.7792C24.0062 6.74115 25.2592 7.99417 26.8391 8.22149V17.5854C25.2592 17.8122 24.0062 19.0652 23.7792 20.6456H20.6194C20.6343 20.4747 20.6451 20.3033 20.6451 20.129C20.6451 16.9987 18.098 14.4516 14.9677 14.4516C11.8374 14.4516 9.29029 16.9987 9.29029 20.129C9.29029 20.3033 9.30113 20.4747 9.31676 20.6451ZM28.9031 22.7096H20.0186C20.1864 22.3825 20.323 22.0377 20.4253 21.6773H24.258C24.543 21.6773 24.7741 21.4467 24.7741 21.1612C24.7741 19.7383 25.9319 18.5806 27.3548 18.5806C27.6398 18.5806 27.8709 18.35 27.8709 18.0644V7.7419C27.8709 7.45713 27.6398 7.22578 27.3548 7.22578C25.9319 7.22578 24.7741 6.06802 24.7741 4.64514C24.7741 4.36037 24.543 4.12902 24.258 4.12902H5.6774C5.39262 4.12902 5.16127 4.36037 5.16127 4.64514C5.16127 6.06802 4.00377 7.22578 2.58064 7.22578C2.29586 7.22578 2.06451 7.45713 2.06451 7.7419V18.0644C2.06451 18.35 2.29586 18.5806 2.58064 18.5806C4.00377 18.5806 5.16127 19.7383 5.16127 21.1612C5.16127 21.4467 5.39262 21.6773 5.6774 21.6773H9.5103C9.61237 22.0377 9.74921 22.3825 9.9168 22.7096H1.03225V3.09676H28.9031V22.7096ZM30.9676 20.6451H29.9354V2.58064C29.9354 2.29586 29.7043 2.06451 29.4193 2.06451H3.09676V1.03225H30.9676V20.6451Z" fill="#00A0E3"/>
<path d="M14.9678 16.5161C12.9756 16.5161 11.3549 18.1373 11.3549 20.129H12.3871C12.3871 18.7061 13.5449 17.5484 14.9678 17.5484V16.5161Z" fill="#00A0E3"/>
<path d="M17.5484 20.129C17.5484 21.5519 16.3908 22.7097 14.9677 22.7097V23.7419C16.9599 23.7419 18.5806 22.1207 18.5806 20.129H17.5484Z" fill="#00A0E3"/>
<path d="M22.7097 8.77425V6.70973C22.7097 6.42495 22.4786 6.1936 22.1936 6.1936H7.74196C7.45718 6.1936 7.22583 6.42495 7.22583 6.70973V8.77425C7.22583 9.05903 7.45718 9.29038 7.74196 9.29038H22.1936C22.4786 9.29038 22.7097 9.05903 22.7097 8.77425ZM21.6774 8.25812H8.25809V7.22586H21.6774V8.25812Z" fill="#00A0E3"/>
<path d="M4.12903 10.3226H8.25806V11.3549H4.12903V10.3226Z" fill="#00A0E3"/>
<path d="M4.12903 12.3871H8.25806V13.4193H4.12903V12.3871Z" fill="#00A0E3"/>
<path d="M9.29034 12.3871H25.8065V13.4193H9.29034V12.3871Z" fill="#00A0E3"/>
<path d="M9.29034 10.3226H25.8065V11.3549H9.29034V10.3226Z" fill="#00A0E3"/>
</svg>
