<svg width="32" height="32" viewBox="0 0 32 32" fill="none" xmlns="http://www.w3.org/2000/svg">
<path d="M19 6.5C19 5.90665 18.824 5.32664 18.4944 4.83329C18.1648 4.33994 17.6962 3.95543 17.148 3.72836C16.5999 3.5013 15.9967 3.44189 15.4147 3.55765C14.8328 3.6734 14.2982 3.95912 13.8787 4.37868C13.4591 4.79824 13.1734 5.33279 13.0576 5.91473C12.9419 6.49667 13.0013 7.09987 13.2284 7.64805C13.4554 8.19622 13.8399 8.66476 14.3333 8.9944C14.8266 9.32405 15.4067 9.49999 16 9.49999C16.7954 9.4991 17.5579 9.18274 18.1203 8.62033C18.6827 8.05791 18.9991 7.29537 19 6.5ZM14 6.5C14 6.10444 14.1173 5.71776 14.3371 5.38886C14.5568 5.05996 14.8692 4.80362 15.2346 4.65224C15.6001 4.50087 16.0022 4.46126 16.3902 4.53843C16.7781 4.6156 17.1345 4.80608 17.4142 5.08579C17.6939 5.36549 17.8844 5.72186 17.9616 6.10982C18.0387 6.49778 17.9991 6.89991 17.8478 7.26536C17.6964 7.63082 17.44 7.94317 17.1111 8.16293C16.7822 8.3827 16.3956 8.5 16 8.5C15.4697 8.4994 14.9614 8.2885 14.5864 7.91355C14.2115 7.53861 14.0006 7.03025 14 6.5Z" fill="#00A0E3"/>
<path d="M15.7133 14.9096C15.7973 14.9685 15.8974 15 16 15C16.1026 15 16.2027 14.9685 16.2868 14.9096C17.2363 14.2101 18.1052 13.4071 18.8773 12.5156C20.5931 10.5424 21.5 8.4625 21.5 6.5C21.5 5.04131 20.9205 3.64236 19.8891 2.61091C18.8576 1.57946 17.4587 1 16 1C14.5413 1 13.1424 1.57946 12.1109 2.61091C11.0795 3.64236 10.5 5.04131 10.5 6.5C10.5 8.4625 11.4069 10.5424 13.1227 12.5156C13.8948 13.4071 14.7637 14.2101 15.7133 14.9096ZM16 2C17.1931 2.00134 18.3369 2.47588 19.1805 3.3195C20.0241 4.16312 20.4987 5.30694 20.5 6.5C20.5 10.0776 17.0323 13.0641 16 13.8739C14.9661 13.0651 11.5 10.0844 11.5 6.5C11.5013 5.30694 11.9759 4.16312 12.8195 3.3195C13.6631 2.47588 14.8069 2.00134 16 2Z" fill="#00A0E3"/>
<path d="M9.35797 26.9739L9.65197 26.0179L10.6522 26.3255L10.3582 27.2815L9.35797 26.9739Z" fill="#00A0E3"/>
<path d="M11.3577 27.587L11.6517 26.631L12.6519 26.9386L12.3579 27.8946L11.3577 27.587Z" fill="#00A0E3"/>
<path d="M13.358 28.2042L13.652 27.2482L14.6522 27.5558L14.3582 28.5118L13.358 28.2042Z" fill="#00A0E3"/>
<path d="M29.1471 12.522L21.6471 10.2144L21.3529 11.1702L27.3 12.9999L16 16.4768L4.7 12.9999L10.6469 11.1702L10.3527 10.2144L2.85275 12.522C2.75059 12.5535 2.66121 12.6169 2.59773 12.7029C2.53424 12.7889 2.49999 12.893 2.5 12.9999V26.4999C2.5 26.6068 2.53428 26.7109 2.5978 26.797C2.66132 26.883 2.75074 26.9463 2.85294 26.9778L15.8529 30.9778C15.9488 31.0073 16.0512 31.0073 16.1471 30.9778L29.1471 26.9778C29.2493 26.9463 29.3387 26.883 29.4022 26.797C29.4657 26.7109 29.5 26.6068 29.5 26.4999V12.9999C29.5 12.893 29.4657 12.7889 29.4022 12.7029C29.3387 12.6169 29.2493 12.5535 29.1471 12.522ZM3.5 13.6769L15.5 17.3692V29.8229L3.5 26.1307V13.6769ZM16.5 29.8229V17.3692L28.5 13.6769V26.1307L16.5 29.8229Z" fill="#00A0E3"/>
<path d="M22.3562 26.0289L23.3564 25.7213L23.6504 26.6773L22.6502 26.9849L22.3562 26.0289Z" fill="#00A0E3"/>
<path d="M24.3557 25.4154L25.3559 25.1078L25.6499 26.0639L24.6497 26.3715L24.3557 25.4154Z" fill="#00A0E3"/>
<path d="M26.3572 24.7982L27.3574 24.4906L27.6514 25.4466L26.6512 25.7542L26.3572 24.7982Z" fill="#00A0E3"/>
<path d="M12 21.1923C12.1326 21.1923 12.2598 21.1396 12.3536 21.0458C12.4473 20.9521 12.5 20.8249 12.5 20.6923V18.1923C12.5 18.0854 12.4657 17.9813 12.4022 17.8953C12.3387 17.8093 12.2493 17.7459 12.1471 17.7144L7.14706 16.1759C7.07227 16.1529 6.99313 16.1478 6.91599 16.1609C6.83885 16.1741 6.76588 16.2051 6.70294 16.2516C6.63999 16.2981 6.58884 16.3587 6.5536 16.4286C6.51835 16.4985 6.49999 16.5756 6.5 16.6539V19.1539C6.5 19.2608 6.53428 19.3649 6.5978 19.4509C6.66132 19.5369 6.75074 19.6003 6.85294 19.6317L11.8529 21.1702C11.9006 21.1849 11.9502 21.1923 12 21.1923ZM11.5 20.0153L7.5 18.7846V17.3309L11.5 18.5615V20.0153Z" fill="#00A0E3"/>
<path d="M25.5 19.1539V16.6539C25.5 16.5756 25.4817 16.4985 25.4464 16.4286C25.4112 16.3587 25.36 16.2981 25.2971 16.2516C25.2341 16.2051 25.1611 16.1741 25.084 16.1609C25.0069 16.1478 24.9277 16.1529 24.8529 16.1759L19.8529 17.7144C19.7507 17.7459 19.6613 17.8093 19.5978 17.8953C19.5343 17.9813 19.5 18.0854 19.5 18.1923V20.6923C19.5 20.7706 19.5183 20.8477 19.5536 20.9176C19.5888 20.9874 19.64 21.0481 19.7029 21.0945C19.7659 21.141 19.8389 21.1721 19.916 21.1853C19.9931 21.1984 20.0723 21.1933 20.1471 21.1702L25.1471 19.6317C25.2493 19.6003 25.3387 19.5369 25.4022 19.4509C25.4657 19.3649 25.5 19.2608 25.5 19.1539ZM24.5 18.7846L20.5 20.0153V18.5616L24.5 17.3309V18.7846Z" fill="#00A0E3"/>
</svg>
