<svg width="32" height="32" viewBox="0 0 32 32" fill="none" xmlns="http://www.w3.org/2000/svg">
<g clip-path="url(#clip0)">
<path d="M10.176 12.8C10.7651 12.8 11.2426 12.3224 11.2426 11.7333V10.6666C11.2426 10.0775 10.7651 9.59998 10.176 9.59998H3.77596C3.18685 9.59998 2.70929 10.0775 2.70929 10.6666V11.7333C2.70929 12.3224 3.18685 12.8 3.77596 12.8H10.176ZM3.77596 10.6666H10.176V11.7333H3.77596V10.6666Z" fill="#00A0E3"/>
<path d="M4.84268 13.8667C3.95902 13.8667 3.24268 14.583 3.24268 15.4667C3.24268 16.3503 3.95902 17.0667 4.84268 17.0667C5.72633 17.0667 6.44268 16.3503 6.44268 15.4667C6.44268 14.583 5.72633 13.8667 4.84268 13.8667ZM4.84268 16C4.54812 16 4.30934 15.7612 4.30934 15.4667C4.30934 15.1721 4.54812 14.9334 4.84268 14.9334C5.13723 14.9334 5.37601 15.1721 5.37601 15.4667C5.37601 15.7612 5.13723 16 4.84268 16Z" fill="#00A0E3"/>
<path d="M4.84268 17.6C3.95902 17.6 3.24268 18.3163 3.24268 19.2C3.24268 20.0836 3.95902 20.8 4.84268 20.8C5.72633 20.8 6.44268 20.0836 6.44268 19.2C6.44268 18.3163 5.72633 17.6 4.84268 17.6ZM4.84268 19.7333C4.54812 19.7333 4.30934 19.4945 4.30934 19.2C4.30934 18.9054 4.54812 18.6666 4.84268 18.6666C5.13723 18.6666 5.37601 18.9054 5.37601 19.2C5.37601 19.4945 5.13723 19.7333 4.84268 19.7333Z" fill="#00A0E3"/>
<path d="M4.84268 21.3333C3.95902 21.3333 3.24268 22.0496 3.24268 22.9332C3.24268 23.8169 3.95902 24.5332 4.84268 24.5332C5.72633 24.5332 6.44268 23.8169 6.44268 22.9332C6.44268 22.0496 5.72633 21.3333 4.84268 21.3333ZM4.84268 23.4666C4.54812 23.4666 4.30934 23.2278 4.30934 22.9332C4.30934 22.6387 4.54812 22.3999 4.84268 22.3999C5.13723 22.3999 5.37601 22.6387 5.37601 22.9332C5.37601 23.2278 5.13723 23.4666 4.84268 23.4666Z" fill="#00A0E3"/>
<path d="M9.10933 13.8667C8.22568 13.8667 7.50934 14.583 7.50934 15.4667C7.50934 16.3503 8.22568 17.0667 9.10933 17.0667C9.99299 17.0667 10.7093 16.3503 10.7093 15.4667C10.7093 14.583 9.99299 13.8667 9.10933 13.8667ZM9.10933 16C8.81478 16 8.576 15.7612 8.576 15.4667C8.576 15.1721 8.81478 14.9334 9.10933 14.9334C9.40389 14.9334 9.64267 15.1721 9.64267 15.4667C9.64267 15.7612 9.40389 16 9.10933 16Z" fill="#00A0E3"/>
<path d="M9.10933 17.6C8.22568 17.6 7.50934 18.3163 7.50934 19.2C7.50934 20.0836 8.22568 20.8 9.10933 20.8C9.99299 20.8 10.7093 20.0836 10.7093 19.2C10.7093 18.3163 9.99299 17.6 9.10933 17.6ZM9.10933 19.7333C8.81478 19.7333 8.576 19.4945 8.576 19.2C8.576 18.9054 8.81478 18.6666 9.10933 18.6666C9.40389 18.6666 9.64267 18.9054 9.64267 19.2C9.64267 19.4945 9.40389 19.7333 9.10933 19.7333Z" fill="#00A0E3"/>
<path d="M9.10933 21.3333C8.22568 21.3333 7.50934 22.0496 7.50934 22.9332C7.50934 23.8169 8.22568 24.5332 9.10933 24.5332C9.99299 24.5332 10.7093 23.8169 10.7093 22.9332C10.7093 22.0496 9.99299 21.3333 9.10933 21.3333ZM9.10933 23.4666C8.81478 23.4666 8.576 23.2278 8.576 22.9332C8.576 22.6387 8.81478 22.3999 9.10933 22.3999C9.40389 22.3999 9.64267 22.6387 9.64267 22.9332C9.64267 23.2278 9.40389 23.4666 9.10933 23.4666Z" fill="#00A0E3"/>
<path d="M25.5999 21.3333C25.5999 21.6279 25.8387 21.8666 26.1333 21.8666C26.4278 21.8666 26.6666 21.6279 26.6666 21.3333C26.6666 20.0149 25.5109 18.9194 23.9999 18.7066V18.1333C23.9999 17.8388 23.7611 17.6 23.4666 17.6C23.172 17.6 22.9333 17.8388 22.9333 18.1333V18.7066C21.4223 18.92 20.2666 20.0149 20.2666 21.3333C20.2666 22.6517 21.4223 23.7472 22.9333 23.96V27.1429C22.0159 26.9642 21.3333 26.3429 21.3333 25.6C21.3333 25.3054 21.0945 25.0666 20.7999 25.0666C20.5054 25.0666 20.2666 25.3054 20.2666 25.6C20.2666 26.9184 21.4223 28.0138 22.9333 28.2266V28.8C22.9333 29.0945 23.172 29.3333 23.4666 29.3333C23.7611 29.3333 23.9999 29.0945 23.9999 28.8V28.2266C25.5109 28.0133 26.6666 26.9184 26.6666 25.6C26.6666 24.2816 25.5109 23.1861 23.9999 22.9733V19.7904C24.9173 19.969 25.5999 20.5898 25.5999 21.3333ZM21.3333 21.3333C21.3333 20.5898 22.0159 19.969 22.9333 19.7904V22.8762C22.0159 22.6976 21.3333 22.0768 21.3333 21.3333ZM25.5999 25.6C25.5999 26.3434 24.9173 26.9642 23.9999 27.1429V24.057C24.9173 24.2357 25.5999 24.8565 25.5999 25.6Z" fill="#00A0E3"/>
<path d="M20.2667 15.5616V11.2L27.4512 14.4128C29.0646 15.1345 30.9575 14.4115 31.6792 12.7981C32.4008 11.1847 31.6779 9.29179 30.0645 8.57013L20.2667 4.18827V3.73333C20.2684 2.26131 21.4613 1.06843 22.9333 1.06667C23.2279 1.06667 23.4667 0.827885 23.4667 0.533333C23.4667 0.238781 23.2279 0 22.9333 0H10.176C8.1151 0.00235127 6.44501 1.67245 6.44266 3.73333V7.46667H2.17599C1.29233 7.46667 0.57599 8.18301 0.57599 9.06667V25.0667C0.57599 25.9503 1.29233 26.6667 2.17599 26.6667H6.44266V27.7333H1.16266C0.847077 27.7317 0.547103 27.8704 0.343999 28.112C0.140895 28.3535 0.0556863 28.6729 0.111456 28.9835C0.456614 30.7346 1.99114 31.9978 3.77599 32H16.5333C17.5452 31.9979 18.5126 31.5839 19.2128 30.8533C22.6697 32.8457 27.0459 32.1748 29.7472 29.2385C32.4486 26.3022 32.753 21.8854 30.48 18.6063C28.2069 15.3272 23.9642 14.0623 20.2667 15.5616ZM16.0341 7.28267L17.1387 4.82293L18.3083 4.8096L16.8091 8.16L16.0341 7.28267ZM13.8715 4.82933H15.9675L15.2597 6.40587L13.8715 4.82933ZM18.3157 7.408C21.4933 8.8288 21.2949 8.76053 21.4544 8.76053C21.7062 8.7608 21.9238 8.58493 21.9765 8.33871C22.0291 8.09248 21.9024 7.84299 21.6725 7.74027L18.7515 6.432L19.4048 4.9712L26.7072 8.23733L26.0544 9.6976L23.6197 8.60907C23.4458 8.53133 23.2435 8.5523 23.0892 8.66409C22.9349 8.77587 22.852 8.96149 22.8716 9.15102C22.8913 9.34055 23.0106 9.50519 23.1845 9.58293L25.6187 10.6715L24.9653 12.1323L17.6629 8.86613L18.3157 7.408ZM28.6544 9.1104L26.9131 13.0037L25.9392 12.5685L27.6811 8.6752L28.6544 9.1104ZM30.7531 10.728C31.0574 11.5344 30.8481 12.4448 30.2219 13.0372C29.5958 13.6297 28.6753 13.7884 27.8869 13.44L29.6288 9.54667C30.1448 9.77552 30.5491 10.1995 30.7531 10.7259V10.728ZM1.64266 25.0667V9.06667C1.64266 8.77212 1.88144 8.53333 2.17599 8.53333H11.776C12.0705 8.53333 12.3093 8.77212 12.3093 9.06667V25.0667C12.3093 25.3612 12.0705 25.6 11.776 25.6H2.17599C1.88144 25.6 1.64266 25.3612 1.64266 25.0667ZM1.16266 28.8032H12.8427C12.96 29.6135 13.3417 30.3623 13.9285 30.9333L3.77599 30.9333C2.50903 30.9361 1.41599 30.0448 1.16372 28.8032H1.16266ZM13.8976 28.6549C13.8267 28.1267 13.3756 27.7326 12.8427 27.7333H7.50932V26.6667H11.776C12.6596 26.6667 13.376 25.9503 13.376 25.0667V9.06667C13.376 8.18301 12.6596 7.46667 11.776 7.46667H7.50932V3.73333C7.51109 2.26131 8.70396 1.06843 10.176 1.06667H20.32C19.5996 1.77114 19.1955 2.7375 19.2 3.74507C19.1798 3.74011 19.1593 3.7362 19.1387 3.73333L19.1291 3.74453H12.6933C12.4833 3.75049 12.2953 3.8764 12.2099 4.06834C12.1244 4.26028 12.1567 4.48422 12.2928 4.64427C17.2304 10.2443 16.5408 9.47627 16.7424 9.62027L19.2 10.7227V16.088C16.7267 17.5117 15.1317 20.0803 14.9522 22.9284C14.7727 25.7766 16.0327 28.5251 18.3077 30.248C17.5781 30.9015 16.5485 31.1015 15.6273 30.7686C14.7061 30.4358 14.0421 29.6239 13.8987 28.6549H13.8976ZM23.4667 30.9333C20.4467 30.9333 17.7241 29.1141 16.5684 26.324C15.4127 23.5339 16.0515 20.3224 18.1869 18.1869C20.3224 16.0515 23.5339 15.4127 26.324 16.5684C29.1141 17.7241 30.9333 20.4467 30.9333 23.4667C30.9289 27.5886 27.5886 30.9289 23.4667 30.9333Z" fill="#00A0E3"/>
<path d="M18.6731 20.0059C18.4186 19.8578 18.0922 19.944 17.944 20.1984C16.8833 22.0312 16.7777 24.2647 17.6608 26.1894C17.736 26.3693 17.9034 26.4938 18.0973 26.5141C18.2913 26.5345 18.4808 26.4473 18.5917 26.2868C18.7025 26.1264 18.717 25.9183 18.6293 25.7441C17.8922 24.1346 17.9804 22.2677 18.8661 20.735C19.0141 20.4803 18.9277 20.1539 18.6731 20.0059Z" fill="#00A0E3"/>
<path d="M28.2602 20.0059C28.0056 20.1539 27.9192 20.4803 28.0672 20.735C28.9529 22.2677 29.0411 24.1346 28.304 25.7441C28.2164 25.9183 28.2308 26.1264 28.3416 26.2868C28.4525 26.4473 28.642 26.5345 28.836 26.5141C29.0299 26.4938 29.1973 26.3693 29.2725 26.1894C30.1556 24.2647 30.05 22.0312 28.9893 20.1984C28.8411 19.944 28.5147 19.8578 28.2602 20.0059Z" fill="#00A0E3"/>
</g>
<defs>
<clipPath id="clip0">
<rect width="32" height="32" fill="white"/>
</clipPath>
</defs>
</svg>
