<svg width="60" height="61" viewBox="0 0 60 61" fill="none" xmlns="http://www.w3.org/2000/svg">
<path d="M30 60.0025C24.0666 60.0025 18.2664 58.243 13.3329 54.9464C8.39943 51.6498 4.55426 46.9643 2.28363 41.4823C0.0129986 36.0003 -0.581102 29.968 0.576455 24.1483C1.73401 18.3286 4.59123 12.9829 8.78681 8.78718C12.9824 4.59143 18.3279 1.73408 24.1473 0.576479C29.9667 -0.581126 35.9987 0.0129991 41.4805 2.28372C46.9623 4.55445 51.6477 8.39979 54.9441 13.3335C58.2405 18.2672 60 24.0676 60 30.0013C60 37.9581 56.8393 45.589 51.2132 51.2154C45.5871 56.8417 37.9565 60.0025 30 60.0025ZM30 2.50012C24.561 2.50012 19.2442 4.11303 14.7218 7.1349C10.1995 10.1568 6.67472 14.4519 4.59331 19.477C2.5119 24.5022 1.96732 30.0318 3.02841 35.3665C4.0895 40.7012 6.70862 45.6014 10.5546 49.4475C14.4005 53.2936 19.3006 55.9129 24.635 56.974C29.9695 58.0352 35.4988 57.4905 40.5238 55.409C45.5488 53.3275 49.8437 49.8026 52.8654 45.2801C55.8872 40.7576 57.5 35.4405 57.5 30.0013C57.5 22.7075 54.6027 15.7125 49.4454 10.555C44.2882 5.39755 37.2935 2.50012 30 2.50012Z" fill="#00A0E3"/>
<path d="M32.05 46.902L15 46.752V14.2506H47.5V31.7514L32.05 31.9264V46.902ZM17.5 44.4019H29.55V29.4013L45 29.2013V16.7007H17.5V44.4019Z" fill="#00A0E3"/>
<path d="M32.05 15.8257H29.55V30.6513H32.05V15.8257Z" fill="#00A0E3"/>
</svg>
