<svg width="20" height="20" viewBox="0 0 20 20" fill="none" xmlns="http://www.w3.org/2000/svg">
<path d="M10 0C8.02219 0 6.08879 0.58649 4.4443 1.6853C2.79981 2.78412 1.51809 4.3459 0.761209 6.17317C0.00433284 8.00043 -0.193701 10.0111 0.192152 11.9509C0.578004 13.8907 1.53041 15.6725 2.92894 17.0711C4.32746 18.4696 6.10929 19.422 8.0491 19.8079C9.98891 20.1937 11.9996 19.9957 13.8268 19.2388C15.6541 18.4819 17.2159 17.2002 18.3147 15.5557C19.4135 13.9112 20 11.9778 20 10C19.997 7.34877 18.9424 4.807 17.0677 2.9323C15.193 1.05759 12.6512 0.00304767 10 0ZM15.5891 7.36848L9.19819 13.7091C9.01762 13.8931 8.77197 13.9989 8.51418 14.0035C8.25639 14.0082 8.00709 13.9114 7.82 13.7339L4.43637 10.6515C4.24577 10.472 4.13182 10.2258 4.11827 9.96429C4.10472 9.7028 4.19262 9.44616 4.36364 9.24788C4.45238 9.15222 4.55914 9.07502 4.67778 9.0207C4.79642 8.96638 4.92462 8.93602 5.05502 8.93134C5.18542 8.92667 5.31546 8.94778 5.43768 8.99347C5.55991 9.03915 5.67191 9.10851 5.76728 9.19757L8.44909 11.6539L14.1606 5.93939C14.3513 5.75632 14.6062 5.6553 14.8706 5.65801C15.1349 5.66072 15.3877 5.76693 15.5746 5.95387C15.7616 6.1408 15.8678 6.39357 15.8705 6.65792C15.8732 6.92227 15.7722 7.17776 15.5891 7.36848Z" fill="#00A0E3"/>
</svg>
