<svg width="60" height="61" viewBox="0 0 60 61" fill="none" xmlns="http://www.w3.org/2000/svg">
<path d="M30 60.0025C24.0666 60.0025 18.2664 58.243 13.3329 54.9464C8.39945 51.6498 4.55424 46.9643 2.28361 41.4823C0.0129845 36.0003 -0.581096 29.968 0.57646 24.1483C1.73402 18.3286 4.59122 12.9829 8.78679 8.78718C12.9824 4.59143 18.3279 1.73408 24.1473 0.576479C29.9667 -0.581126 35.9987 0.0129991 41.4805 2.28372C46.9623 4.55445 51.6476 8.39979 54.9441 13.3335C58.2405 18.2672 60 24.0676 60 30.0013C60 37.9581 56.8393 45.589 51.2132 51.2154C45.5871 56.8417 37.9565 60.0025 30 60.0025ZM30 2.50012C24.561 2.50012 19.2442 4.11303 14.7218 7.1349C10.1995 10.1568 6.67474 14.4519 4.59334 19.477C2.51193 24.5022 1.96734 30.0318 3.02843 35.3665C4.08953 40.7012 6.70862 45.6014 10.5546 49.4475C14.4005 53.2936 19.3005 55.9129 24.635 56.974C29.9695 58.0352 35.4988 57.4905 40.5238 55.409C45.5488 53.3275 49.8437 49.8026 52.8654 45.2801C55.8872 40.7576 57.5 35.4405 57.5 30.0013C57.5 26.3898 56.7887 22.8136 55.4067 19.477C54.0247 16.1404 51.999 13.1087 49.4454 10.555C46.8918 8.0013 43.8603 5.97558 40.5238 4.59352C37.1874 3.21146 33.6114 2.50012 30 2.50012Z" fill="#00A0E3"/>
<path d="M41.25 48.752H18.75V11.2504H41.25V48.752ZM21.25 46.2519H38.75V13.7505H21.25V46.2519Z" fill="#00A0E3"/>
<path d="M26.25 15.0007H23.75V45.0019H26.25V15.0007Z" fill="#00A0E3"/>
</svg>
