<svg width="15" height="14" viewBox="0 0 15 14" fill="none" xmlns="http://www.w3.org/2000/svg">
<path d="M14.7093 11.1323L11.5681 9.17782C11.2828 9.00067 10.8994 9.05874 10.6888 9.31107L9.77408 10.4086C9.57759 10.6468 9.22413 10.7152 8.94235 10.5696C8.32168 10.2474 7.58771 9.94396 5.96826 8.43053C4.3488 6.9171 4.02165 6.234 3.67639 5.6547C3.52038 5.39171 3.59371 5.06182 3.84889 4.87845L5.02482 4.02471C5.29514 3.82816 5.35739 3.47032 5.16758 3.20402L3.07355 0.272232C2.8797 0.000820875 2.49164 -0.0806626 2.19193 0.0870894L0.878393 0.822573C0.523407 1.01778 0.262463 1.33299 0.149613 1.70287C-0.209592 2.9252 -0.282013 5.62162 4.34801 9.94298C8.97803 14.2643 11.8668 14.1965 13.1764 13.8612C13.5727 13.7559 13.9105 13.5124 14.1196 13.181L14.9076 11.9551C15.0874 11.6753 15.0001 11.3132 14.7093 11.1323Z" fill="#00A0E3"/>
<path d="M8.53528 2.17232C10.9623 2.17483 12.9291 4.01051 12.9318 6.27572C12.9318 6.40902 13.0476 6.51711 13.1904 6.51711C13.3332 6.51711 13.449 6.40905 13.449 6.27572C13.446 3.74402 11.2478 1.69236 8.53531 1.68957C8.39248 1.68957 8.27668 1.79763 8.27668 1.93096C8.27665 2.06423 8.39243 2.17232 8.53528 2.17232Z" fill="#00A0E3"/>
<path d="M8.53569 3.62067C10.1061 3.62239 11.3786 4.81013 11.3805 6.2758C11.3805 6.40909 11.4962 6.51718 11.6391 6.51718C11.7819 6.51718 11.8977 6.40912 11.8977 6.2758C11.8956 4.54362 10.3916 3.13989 8.53569 3.13789C8.39287 3.13789 8.27706 3.24595 8.27706 3.37928C8.27706 3.51261 8.39284 3.62067 8.53569 3.62067Z" fill="#00A0E3"/>
<path d="M8.53528 5.06893C9.24909 5.06973 9.82752 5.60959 9.82837 6.27582C9.82837 6.40912 9.94415 6.5172 10.087 6.5172C10.2298 6.5172 10.3456 6.40914 10.3456 6.27582C10.3445 5.34311 9.53464 4.58725 8.53531 4.58618C8.39248 4.58618 8.27668 4.69425 8.27668 4.82757C8.27665 4.96087 8.39243 5.06893 8.53528 5.06893Z" fill="#00A0E3"/>
</svg>
