<svg width="16" height="11" viewBox="0 0 16 11" fill="none" xmlns="http://www.w3.org/2000/svg">
<path d="M15.8592 0.980138L11.0068 5.50003L15.8592 10.0199C15.9469 9.84804 16.0002 9.65802 16.0002 9.45511V1.54495C16.0002 1.34201 15.9469 1.15202 15.8592 0.980138Z" fill="#00A0E3"/>
<path d="M14.5937 0.226562H1.40625C1.18978 0.226562 0.987125 0.276455 0.803781 0.358691L7.00575 6.14374C7.55412 6.65784 8.44587 6.65784 8.99425 6.14374L15.1962 0.358691C15.0129 0.276455 14.8102 0.226562 14.5937 0.226562Z" fill="#00A0E3"/>
<path d="M0.140938 0.980138C0.0532188 1.15202 0 1.34201 0 1.54495V9.45511C0 9.65805 0.0532188 9.84807 0.140938 10.0199L4.99341 5.50003L0.140938 0.980138Z" fill="#00A0E3"/>
<path d="M10.3437 6.12146L9.65709 6.7652C8.74337 7.62181 7.25659 7.62181 6.34287 6.7652L5.65625 6.12146L0.803781 10.6414C0.987125 10.7236 1.18978 10.7735 1.40625 10.7735H14.5937C14.8102 10.7735 15.0129 10.7236 15.1962 10.6414L10.3437 6.12146Z" fill="#00A0E3"/>
</svg>
