<svg width="70" height="70" viewBox="0 0 70 70" fill="none" xmlns="http://www.w3.org/2000/svg">
<path d="M35.3724 23.5867L28.2911 23.5909L28.2944 16.5096C28.2951 15.2136 27.2447 14.1619 25.9486 14.1614H25.9474C24.6516 14.1614 23.6014 15.2112 23.6007 16.5073L23.5971 23.5933L16.5106 23.5975C15.2146 23.5982 14.1641 24.6494 14.1648 25.9457C14.1655 27.242 15.2162 28.2915 16.512 28.2915L23.595 28.2873L23.5915 35.3698C23.5908 36.6659 24.6412 37.717 25.9373 37.7177H25.9385C27.2343 37.7177 28.2848 36.668 28.2855 35.3722L28.289 28.2849L35.3741 28.2807C36.6702 28.28 37.7202 27.2286 37.7194 25.9323C37.7187 24.6365 36.668 23.5867 35.3724 23.5867Z" fill="#00A0E3"/>
<path d="M68.1077 58.1566L48.5653 38.5931C54.0729 28.72 52.6401 15.9805 44.2658 7.59795C39.3722 2.69842 32.8647 0 25.9428 0C19.021 0 12.5136 2.69842 7.61879 7.59795C-2.48361 17.7116 -2.48361 34.1671 7.61879 44.2787C12.5134 49.1794 19.021 51.878 25.9428 51.878C30.4433 51.878 34.7672 50.7361 38.5875 48.5915L58.1213 68.147C59.3149 69.3422 60.9058 70 62.6016 70C64.2969 70 65.8883 69.3422 67.082 68.147L68.1082 67.1194C70.5764 64.6482 70.5761 60.6271 68.1077 58.1566ZM10.9394 40.9616C2.66481 32.6787 2.66505 19.1998 10.9394 10.9151C14.9476 6.9036 20.2756 4.69401 25.9428 4.69401C31.6099 4.69401 36.9377 6.9036 40.9452 10.9151C49.2207 19.1993 49.2207 32.6782 40.9447 40.9618C36.9377 44.9742 31.6099 47.184 25.9428 47.184C20.2756 47.184 14.9476 44.9742 10.9394 40.9616ZM64.7869 63.8023L63.7604 64.8299C63.4543 65.1368 63.0425 65.306 62.6016 65.306C62.1608 65.306 61.7493 65.1365 61.4424 64.8299L42.5139 45.8804C43.1177 45.3756 43.7032 44.8427 44.2656 44.2791C44.8296 43.7149 45.3599 43.1294 45.8607 42.5282L64.7869 61.4739C65.4171 62.1049 65.4171 63.1709 64.7869 63.8023Z" fill="#00A0E3"/>
</svg>
