<svg width="17" height="17" viewBox="0 0 17 17" fill="none" xmlns="http://www.w3.org/2000/svg">
<path d="M16.0849 13.1545L12.6581 10.8701C12.3469 10.6631 11.9286 10.731 11.6989 11.0259L10.701 12.3087C10.4866 12.5871 10.101 12.6671 9.79366 12.4969C9.11655 12.1203 8.31586 11.7656 6.54919 9.99669C4.78251 8.22774 4.42561 7.42932 4.04897 6.75222C3.87878 6.44483 3.95878 6.05923 4.23715 5.84491L5.51998 4.84703C5.81488 4.6173 5.88279 4.19904 5.67572 3.88778L3.39133 0.461017C3.17985 0.143784 2.75651 0.0485432 2.42956 0.244617L0.996611 1.10427C0.609353 1.33243 0.324687 1.70087 0.201577 2.13319C-0.190282 3.56189 -0.269287 6.71355 4.78165 11.7645C9.83258 16.8154 12.984 16.7362 14.4127 16.3443C14.845 16.2212 15.2134 15.9365 15.4416 15.5492L16.3012 14.1163C16.4973 13.7893 16.4021 13.366 16.0849 13.1545Z" fill="#00A0E3"/>
<path d="M9.34946 2.68191C11.9971 2.68485 14.1427 4.83044 14.1456 7.47809C14.1456 7.6339 14.2719 7.76023 14.4278 7.76023C14.5836 7.76023 14.7099 7.63393 14.7099 7.47809C14.7067 4.51896 12.3086 2.12092 9.34949 2.11766C9.19369 2.11766 9.06735 2.24396 9.06735 2.3998C9.06732 2.55557 9.19362 2.68191 9.34946 2.68191Z" fill="#00A0E3"/>
<path d="M9.34942 4.3748C11.0626 4.37681 12.4508 5.76508 12.4528 7.4782C12.4528 7.634 12.5791 7.76034 12.735 7.76034C12.8908 7.76034 13.0171 7.63403 13.0171 7.4782C13.0148 5.45357 11.3741 3.81285 9.34942 3.81052C9.19362 3.81052 9.06728 3.93682 9.06728 4.09266C9.06728 4.24849 9.19359 4.3748 9.34942 4.3748Z" fill="#00A0E3"/>
<path d="M9.34946 6.06755C10.1282 6.06848 10.7592 6.6995 10.7601 7.4782C10.7601 7.634 10.8864 7.76034 11.0422 7.76034C11.198 7.76034 11.3244 7.63403 11.3244 7.4782C11.3231 6.38802 10.4397 5.50455 9.34949 5.5033C9.19369 5.5033 9.06735 5.62961 9.06735 5.78544C9.06732 5.94125 9.19362 6.06755 9.34946 6.06755Z" fill="#00A0E3"/>
</svg>
