<svg width="22" height="15" viewBox="0 0 22 15" fill="none" xmlns="http://www.w3.org/2000/svg">
<path d="M21.3338 1.70041L14.9531 7.8052L21.3338 13.91C21.4491 13.6778 21.5191 13.4212 21.5191 13.1471V2.46328C21.5191 2.18918 21.4491 1.93257 21.3338 1.70041Z" fill="#00A0E3"/>
<path d="M19.6709 0.682617H2.33017C2.04553 0.682617 1.77905 0.750005 1.53796 0.861077L9.69314 8.67465C10.4142 9.36902 11.5868 9.36902 12.3079 8.67465L20.4631 0.861077C20.222 0.750005 19.9555 0.682617 19.6709 0.682617Z" fill="#00A0E3"/>
<path d="M0.665792 1.70041C0.550448 1.93257 0.480469 2.18918 0.480469 2.46328V13.1471C0.480469 13.4212 0.550448 13.6779 0.665792 13.91L7.04647 7.8052L0.665792 1.70041Z" fill="#00A0E3"/>
<path d="M14.0824 8.64456L13.1795 9.51402C11.978 10.671 10.023 10.671 8.82151 9.51402L7.91864 8.64456L1.53796 14.7493C1.77905 14.8604 2.04553 14.9278 2.33017 14.9278H19.6709C19.9555 14.9278 20.222 14.8604 20.4631 14.7493L14.0824 8.64456Z" fill="#00A0E3"/>
</svg>
